<svg xmlns="http://www.w3.org/2000/svg" version="1.1" xmlns:xlink="http://www.w3.org/1999/xlink" xmlns:svgjs="http://svgjs.dev/svgjs" viewBox="0 0 800 400"><path d="M39.01345443725586,372.1972961425781C44.09566688537598,365.47084045410156,57.698059717814125,330.19431559244794,69.50672912597656,331.83856201171875C81.31539853413899,333.48280843098956,91.77877553304036,388.63975524902344,109.86547088623047,382.0627746582031C127.95216623942058,375.4857940673828,163.97607803344727,294.91778564453125,178.0269012451172,292.3766784667969C192.0777244567871,289.8355712890625,188.49029032389322,362.0328725179036,194.17041015625,366.8161315917969C199.85052998860678,371.5993906656901,201.04633585611978,319.73094177246094,212.1076202392578,321.07623291015625C223.16890462239584,322.42152404785156,254.7085189819336,387.5934092203776,260.5381164550781,374.88787841796875C266.36771392822266,362.1823476155599,236.92078145345053,245.73990885416666,247.085205078125,244.84304809570312C257.2496287027995,243.9461873372396,308.5201721191406,360.0896708170573,321.524658203125,369.5067138671875C334.5291442871094,378.9237569173177,316.8908945719401,302.84007263183594,325.11212158203125,301.3453063964844C333.3333485921224,299.8505401611328,364.4245198567708,379.67115275065106,370.8520202636719,360.5381164550781C377.27952067057294,341.4050801595052,354.2600860595703,193.27354431152344,363.6771240234375,186.54708862304688C373.0941619873047,179.8206329345703,412.4065653483073,289.53663126627606,427.354248046875,320.17938232421875C442.3019307454427,350.82213338216144,449.6262969970703,388.93872324625653,453.36322021484375,370.4035949707031C457.1001434326172,351.8684666951497,436.77130126953125,213.6023966471354,449.7757873535156,208.96861267089844C462.7802734375,204.33482869466147,522.4215291341146,354.40956115722656,531.39013671875,342.60089111328125C540.3587443033854,330.79222106933594,496.26307169596356,147.53363037109375,503.5874328613281,138.11659240722656C510.9117940266927,128.69955444335938,552.4663441975912,250.22422536214194,575.3363037109375,286.0986633300781C598.2062632242838,321.97310129801434,634.828114827474,364.87293752034503,640.8071899414062,353.36322021484375C646.7862650553385,341.85350290934247,619.7309366861979,257.548578898112,611.2107543945312,217.0403594970703C602.6905721028646,176.53214009602866,570.8520100911459,88.63976287841797,589.6860961914062,110.31390380859375C608.5201822916666,131.98804473876953,709.4170633951823,343.79671478271484,724.2152709960938,347.085205078125C739.0134785970052,350.37369537353516,671.0015055338541,144.9925282796224,678.475341796875,130.0448455810547C685.9491780598959,115.09716288248698,760.2391560872396,273.84156068166095,769.0582885742188,257.39910888671875C777.8774210611979,240.95665709177652,728.5500793457031,48.579971949259445,731.39013671875,31.390134811401367C734.2301940917969,14.200297673543293,776.9805501302084,133.78176085154215,786.0986328125,154.2600860595703" fill="none" stroke-width="25" stroke="url(&quot;#SvgjsLinearGradient1000&quot;)" stroke-linecap="round" transform="matrix(1,0,0,1,-12.55605697631836,-6.156534194946289)"></path><defs><linearGradient id="SvgjsLinearGradient1000"><stop stop-color="hsl(223, 99%, 67%)" offset="0"></stop><stop stop-color="hsl(316, 73%, 52%)" offset="1"></stop></linearGradient></defs></svg>